<svg xmlns="http://www.w3.org/2000/svg" width="25" height="30" viewBox="0 0 25 30" fill="none">
<path d="M12.5 0C9.18479 0 6.00537 1.26428 3.66117 3.51471C1.31696 5.76514 0 8.81737 0 12C0 20.0999 11.0156 29.2499 11.4844 29.6399C11.7674 29.8723 12.1276 30 12.5 30C12.8724 30 13.2326 29.8723 13.5156 29.6399C14.0625 29.2499 25 20.0999 25 12C25 8.81737 23.683 5.76514 21.3388 3.51471C18.9946 1.26428 15.8152 0 12.5 0ZM12.5 26.4749C9.17188 23.4749 3.125 17.0099 3.125 12C3.125 9.61302 4.11272 7.32384 5.87087 5.63602C7.62903 3.9482 10.0136 2.99999 12.5 2.99999C14.9864 2.99999 17.371 3.9482 19.1291 5.63602C20.8873 7.32384 21.875 9.61302 21.875 12C21.875 17.0099 15.8281 23.4899 12.5 26.4749ZM12.5 5.99998C11.2639 5.99998 10.0555 6.35187 9.02769 7.01116C7.99988 7.67045 7.1988 8.60751 6.72575 9.70387C6.2527 10.8002 6.12893 12.0066 6.37009 13.1705C6.61125 14.3344 7.2065 15.4035 8.08058 16.2426C8.95466 17.0817 10.0683 17.6531 11.2807 17.8847C12.4931 18.1162 13.7497 17.9973 14.8918 17.5432C16.0338 17.0891 17.0099 16.3201 17.6967 15.3334C18.3834 14.3467 18.75 13.1866 18.75 12C18.75 10.4087 18.0915 8.88255 16.9194 7.75733C15.7473 6.63212 14.1576 5.99998 12.5 5.99998ZM12.5 15C11.8819 15 11.2777 14.824 10.7638 14.4944C10.2499 14.1647 9.8494 13.6962 9.61288 13.148C9.37635 12.5998 9.31447 11.9966 9.43505 11.4147C9.55562 10.8328 9.85325 10.2982 10.2903 9.87865C10.7273 9.45909 11.2842 9.17337 11.8903 9.05761C12.4965 8.94186 13.1249 9.00127 13.6959 9.22833C14.2669 9.45539 14.755 9.83991 15.0983 10.3333C15.4417 10.8266 15.625 11.4066 15.625 12C15.625 12.7956 15.2958 13.5587 14.7097 14.1213C14.1237 14.6839 13.3288 15 12.5 15Z" fill="#FFDE59"/>
</svg>